# xmcd
#
# Track frame offsets: 
#        150
#        17712
#        32942
#        49275
#        61105
#        75352
#        91750
#        108180
#        127432
#        143185
#        158512
#        176770
#        190875
#        208170
#        226740
#        245062
#        264255
#
# Disc length: 3779 seconds
#
# Revision: 30
# Processed by: cddbd v1.5.2PL0 Copyright (c) Steve Scherf et al.
# Submitted via: ExactAudioCopy v1.1
#
DISCID=e30ec111
DTITLE=Kenny Chesney - Greatest Hits
DYEAR=2000
DGENRE=Country
TTITLE0=I Lost It (New)
TTITLE1=Don't Happen Twice (New)
TTITLE2=The Tin Man (New)
TTITLE3=Fall in Love (Remix)
TTITLE4=All I Need to Know
TTITLE5=For the First Time (New)
TTITLE6=Me and You
TTITLE7=Back Where I Come From (Live Version)
TTITLE8=When I Close My Eyes
TTITLE9=She's Got It All
TTITLE10=That's Why I'm Here
TTITLE11=How Forever Feels
TTITLE12=You Had Me from Hello
TTITLE13=She Thinks My Tractor's Sexy
TTITLE14=What I Need to Do
TTITLE15=Kenny Chesney and Randy Travis - Baptism (duet with Randy Travi
TTITLE15=s)
TTITLE16=Because of Your Love
EXTD=YEAR: 2000
EXTT0=
EXTT1=
EXTT2=
EXTT3=
EXTT4=
EXTT5=
EXTT6=
EXTT7=
EXTT8=
EXTT9=
EXTT10=
EXTT11=
EXTT12=
EXTT13=
EXTT14=
EXTT15=
EXTT16=
PLAYORDER=
